<?xml version="1.0" standalone="no"?>
<!DOCTYPE svg PUBLIC "-//W3C//DTD SVG 20010904//EN"
 "http://www.w3.org/TR/2001/REC-SVG-20010904/DTD/svg10.dtd">
<svg version="1.0" xmlns="http://www.w3.org/2000/svg"
 width="512.000000pt" height="512.000000pt" viewBox="0 0 512.000000 512.000000"
 preserveAspectRatio="xMidYMid meet">

<g transform="translate(0.000000,512.000000) scale(0.100000,-0.100000)"
fill="#000000" stroke="none">
<path d="M443 5100 c-119 -31 -180 -66 -268 -155 -90 -90 -125 -151 -156 -274
-19 -75 -20 -109 -17 -762 l3 -684 27 -75 c70 -191 217 -324 413 -375 87 -22
1378 -22 1473 0 207 49 378 220 427 427 22 95 22 1386 0 1473 -42 166 -153
307 -297 378 -134 66 -138 67 -873 66 -614 0 -665 -1 -732 -19z m1394 -385
c59 -18 106 -65 122 -122 7 -25 11 -257 11 -661 0 -539 -2 -628 -15 -660 -21
-49 -52 -81 -100 -103 -38 -17 -79 -19 -665 -19 -406 0 -638 4 -663 11 -21 5
-53 24 -72 40 -65 57 -65 62 -65 730 0 399 4 615 11 650 14 66 69 123 131 137
25 6 300 10 649 11 513 1 613 -1 656 -14z"/>
<path d="M3210 5104 c-209 -44 -380 -213 -435 -429 -22 -87 -22 -1378 0 -1473
49 -207 220 -378 427 -427 95 -22 1386 -22 1473 0 81 21 190 76 246 124 63 55
134 161 167 251 l27 75 3 676 c3 761 3 762 -67 904 -52 104 -136 190 -240 244
-139 71 -139 71 -878 70 -523 0 -671 -3 -723 -15z m1371 -385 c70 -15 123 -68
138 -138 7 -35 11 -251 11 -650 0 -668 0 -673 -65 -730 -19 -16 -51 -35 -72
-40 -25 -7 -257 -11 -661 -11 -539 0 -628 2 -660 15 -49 21 -81 52 -103 100
-17 38 -19 79 -19 665 0 406 4 638 11 663 5 21 24 53 41 72 55 63 56 64 725
64 404 1 619 -3 654 -10z"/>
<path d="M440 2344 c-160 -42 -302 -154 -373 -294 -66 -132 -67 -139 -67 -871
0 -620 1 -660 20 -733 57 -223 223 -384 445 -431 102 -22 1337 -22 1439 0 215
45 386 212 441 430 22 87 22 1378 0 1473 -49 207 -220 378 -427 427 -92 22
-1396 21 -1478 -1z m1415 -393 c48 -22 79 -54 100 -103 13 -32 15 -121 15
-660 0 -404 -4 -636 -11 -661 -5 -21 -24 -53 -40 -72 -57 -65 -62 -65 -730
-65 -399 0 -615 4 -650 11 -70 15 -123 68 -138 138 -7 35 -11 251 -11 650 0
655 1 670 59 725 58 56 52 55 736 55 592 1 632 -1 670 -18z"/>
<path d="M3198 2344 c-204 -49 -375 -221 -423 -426 -22 -95 -22 -1386 0 -1473
21 -81 76 -190 124 -246 55 -63 161 -134 251 -167 l75 -27 675 -3 c744 -3 772
-1 892 58 77 39 93 50 161 117 39 39 71 84 98 138 70 142 70 143 67 904 l-3
676 -27 75 c-33 90 -104 196 -167 251 -56 48 -165 103 -246 124 -84 21 -1389
21 -1477 -1z m1395 -385 c21 -5 53 -24 72 -40 65 -57 65 -62 65 -730 0 -399
-4 -615 -11 -650 -15 -70 -68 -123 -138 -138 -35 -7 -251 -11 -650 -11 -668 0
-673 0 -730 65 -16 19 -35 51 -40 72 -7 25 -11 257 -11 661 0 539 2 628 15
660 21 49 52 81 100 103 38 17 79 19 665 19 406 0 638 -4 663 -11z"/>
</g>
</svg>
