<svg width="59" height="24" viewBox="0 0 59 24" fill="none" xmlns="http://www.w3.org/2000/svg">
<path d="M26.5571 20.7714V17.7047C26.5571 16.9246 27.193 16.2908 27.9809 16.2856H30.867C31.6586 16.2856 32.3004 16.9209 32.3004 17.7047V17.7047V20.7809C32.3002 21.4432 32.8342 21.9845 33.5029 22H35.427C37.345 22 38.8999 20.4607 38.8999 18.5618V18.5618V9.83784C38.8897 9.09083 38.5354 8.38935 37.9379 7.93303L31.3576 2.6853C30.2048 1.77157 28.5661 1.77157 27.4133 2.6853L20.8619 7.94256C20.2622 8.39702 19.9073 9.09967 19.8999 9.84736V18.5618C19.8999 20.4607 21.4548 22 23.3728 22H25.2969C25.9823 22 26.5379 21.4499 26.5379 20.7714V20.7714" stroke="#909090" stroke-opacity="0.5" stroke-width="1.5" stroke-linecap="round" stroke-linejoin="round"/>
</svg>
